<svg xmlns="http://www.w3.org/2000/svg" width="1024" height="1024" viewBox="0 0 1024 1024">
  <defs>
    <radialGradient id="atBrass" cx="0.24" cy="0.2" r="0.5">
      <stop offset="0%" stop-color="#e2bd74" stop-opacity="0.4" />
      <stop offset="100%" stop-color="#e2bd74" stop-opacity="0" />
    </radialGradient>
    <radialGradient id="atSolvent" cx="0.8" cy="0.82" r="0.5">
      <stop offset="0%" stop-color="#46c68a" stop-opacity="0.22" />
      <stop offset="100%" stop-color="#46c68a" stop-opacity="0" />
    </radialGradient>
    <pattern id="atGrid" width="64" height="64" patternUnits="userSpaceOnUse">
      <path d="M64 0 H0 V64" fill="none" stroke="#ece7da" stroke-opacity="0.04" stroke-width="1" />
    </pattern>
  </defs>
  <rect width="1024" height="1024" rx="180" fill="#0a0b0d" />
  <rect width="1024" height="1024" rx="180" fill="url(#atGrid)" />
  <rect width="1024" height="1024" rx="180" fill="url(#atBrass)" />
  <rect width="1024" height="1024" rx="180" fill="url(#atSolvent)" />
  <rect x="2" y="2" width="1020" height="1020" rx="178" fill="none" stroke="#c8a86a" stroke-opacity="0.28" stroke-width="2" />
  <svg x="172" y="172" width="680" height="680" viewBox="0 0 32 32" fill="none">
    <circle cx="16" cy="16" r="13.6" stroke="#ece7da" stroke-opacity="0.5" stroke-width="1.2" />
    <circle cx="16" cy="16" r="11" stroke="#c8a86a" stroke-opacity="0.35" stroke-width="0.7" />
    <svg x="8.5" y="8.5" width="15" height="15" viewBox="0 0 24 24">
      <path d="M12 1.5c.3 4.8 1.9 6.4 6.7 6.7v.6c-4.8.3-6.4 1.9-6.7 6.7h-.6c-.3-4.8-1.9-6.4-6.7-6.7v-.6c4.8-.3 6.4-1.9 6.7-6.7z" fill="#e2bd74" />
    </svg>
  </svg>
</svg>
